<svg width="4216" height="120" viewBox="0 0 4216 120" fill="none" xmlns="http://www.w3.org/2000/svg">
<path d="M1067.81 50.855C1070.71 85.1732 1039.63 113 998.389 113C957.146 113 935.83 95.7735 950.772 74.514C965.706 53.2545 996.787 25.4278 1020.19 12.369C1043.59 -0.698232 1064.91 16.5367 1067.81 50.8634V50.855Z" fill="black"/>
<path d="M3191.81 50.855C3194.71 85.1732 3163.63 113 3122.39 113C3081.15 113 3059.83 95.7735 3074.77 74.514C3089.71 53.2545 3120.79 25.4278 3144.19 12.369C3167.59 -0.698232 3188.91 16.5367 3191.81 50.8634V50.855Z" fill="black"/>
<path d="M1187.22 61.2159C1185.68 70.392 1182.7 78.2614 1178.27 84.8239C1173.86 91.3864 1168.47 96.429 1162.07 99.9517C1155.71 103.446 1148.84 105.193 1141.45 105.193C1133.75 105.193 1127.17 103.361 1121.72 99.696C1116.29 96.0028 1112.4 90.7614 1110.04 83.9716C1107.68 77.1534 1107.29 69.0284 1108.85 59.5966C1110.38 50.4205 1113.35 42.5511 1117.76 35.9886C1122.19 29.3977 1127.6 24.3409 1133.99 20.8182C1140.41 17.2955 1147.34 15.5341 1154.79 15.5341C1162.43 15.5341 1168.95 17.3807 1174.35 21.0739C1179.77 24.7386 1183.66 29.9943 1186.02 36.8409C1188.38 43.6591 1188.78 51.7841 1187.22 61.2159ZM1174.39 59.5966C1175.55 52.6364 1175.41 46.7841 1173.96 42.0398C1172.54 37.267 1170.11 33.6591 1166.68 31.2159C1163.24 28.7727 1159.09 27.5511 1154.23 27.5511C1149.06 27.5511 1144.22 28.858 1139.7 31.4716C1135.21 34.0852 1131.38 37.892 1128.2 42.892C1125.01 47.892 1122.84 54 1121.68 61.2159C1120.48 68.1761 1120.61 74.0284 1122.06 78.7727C1123.51 83.517 1125.95 87.1108 1129.39 89.554C1132.86 91.9687 1137.02 93.1761 1141.88 93.1761C1147.02 93.1761 1151.83 91.8835 1156.32 89.2983C1160.84 86.6847 1164.69 82.892 1167.87 77.9205C1171.05 72.9205 1173.22 66.8125 1174.39 59.5966ZM1196.52 104L1211 16.7273H1265.12L1263.25 28.0625H1222.3L1217.87 54.6534H1254.94L1253.06 65.946H1215.99L1209.68 104H1196.52ZM1306.34 16.7273H1321.3L1337.58 56.4006H1338.56L1367.83 16.7273H1382.79L1342.35 69.7386L1336.64 104H1323.52L1329.18 69.7386L1306.34 16.7273ZM1459.21 61.2159C1457.67 70.392 1454.69 78.2614 1450.26 84.8239C1445.86 91.3864 1440.46 96.429 1434.07 99.9517C1427.7 103.446 1420.83 105.193 1413.44 105.193C1405.74 105.193 1399.17 103.361 1393.71 99.696C1388.28 96.0028 1384.39 90.7614 1382.03 83.9716C1379.68 77.1534 1379.28 69.0284 1380.84 59.5966C1382.38 50.4205 1385.34 42.5511 1389.75 35.9886C1394.18 29.3977 1399.59 24.3409 1405.98 20.8182C1412.4 17.2955 1419.34 15.5341 1426.78 15.5341C1434.42 15.5341 1440.94 17.3807 1446.34 21.0739C1451.76 24.7386 1455.66 29.9943 1458.01 36.8409C1460.37 43.6591 1460.77 51.7841 1459.21 61.2159ZM1446.38 59.5966C1447.55 52.6364 1447.4 46.7841 1445.96 42.0398C1444.53 37.267 1442.11 33.6591 1438.67 31.2159C1435.23 28.7727 1431.08 27.5511 1426.23 27.5511C1421.05 27.5511 1416.21 28.858 1411.69 31.4716C1407.21 34.0852 1403.37 37.892 1400.19 42.892C1397.01 47.892 1394.83 54 1393.67 61.2159C1392.48 68.1761 1392.6 74.0284 1394.05 78.7727C1395.5 83.517 1397.94 87.1108 1401.38 89.554C1404.85 91.9687 1409.01 93.1761 1413.87 93.1761C1419.01 93.1761 1423.82 91.8835 1428.31 89.2983C1432.83 86.6847 1436.68 82.892 1439.86 77.9205C1443.04 72.9205 1445.22 66.8125 1446.38 59.5966ZM1539.12 16.7273H1552.33L1542.83 74.1278C1541.83 80.2358 1539.5 85.6477 1535.84 90.3636C1532.17 95.0511 1527.51 98.7443 1521.86 101.443C1516.21 104.114 1509.9 105.449 1502.94 105.449C1495.95 105.449 1490.09 104.114 1485.34 101.443C1480.6 98.7443 1477.17 95.0511 1475.07 90.3636C1473 85.6477 1472.47 80.2358 1473.49 74.1278L1483 16.7273H1496.16L1486.83 73.0625C1486.21 77.0114 1486.51 80.5199 1487.73 83.5881C1488.98 86.6562 1491.05 89.071 1493.95 90.8324C1496.88 92.5653 1500.55 93.4318 1504.99 93.4318C1509.42 93.4318 1513.38 92.5653 1516.88 90.8324C1520.4 89.071 1523.27 86.6562 1525.48 83.5881C1527.73 80.5199 1529.16 77.0114 1529.79 73.0625L1539.12 16.7273ZM1556.99 104L1571.47 16.7273H1602.58C1609.34 16.7273 1614.75 17.892 1618.82 20.2216C1622.91 22.5227 1625.72 25.733 1627.25 29.8523C1628.82 33.9432 1629.16 38.6875 1628.28 44.0852C1627.37 49.4261 1625.45 54.1136 1622.52 58.1477C1619.63 62.1818 1615.75 65.3352 1610.89 67.608C1606.06 69.8523 1600.27 70.9744 1593.5 70.9744H1569.94L1571.9 59.6392H1594.27C1598.56 59.6392 1602.14 59.0284 1605.01 57.8068C1607.88 56.5852 1610.12 54.8097 1611.74 52.4801C1613.39 50.1506 1614.47 47.3523 1614.98 44.0852C1615.52 40.7614 1615.37 37.9062 1614.51 35.5199C1613.66 33.1051 1612 31.2585 1609.53 29.9801C1607.06 28.6733 1603.66 28.0199 1599.34 28.0199H1582.81L1570.15 104H1556.99ZM1606.59 64.625L1621.63 104H1606.63L1591.97 64.625H1606.59ZM1666.44 104L1680.93 16.7273H1694.09L1681.48 92.6648H1721.03L1719.15 104H1666.44ZM1761.83 16.7273L1747.34 104H1734.17L1748.66 16.7273H1761.83ZM1766.52 104L1781 16.7273H1835.12L1833.25 28.0625H1792.3L1787.87 54.6534H1824.94L1823.06 65.946H1785.99L1779.68 104H1766.52ZM1836.83 104L1851.32 16.7273H1906.03L1904.16 28.0625H1862.61L1858.18 54.6534H1896.87L1895 65.946H1856.3L1851.87 92.6648H1893.93L1892.06 104H1836.83Z" fill="black"/>
<path d="M3311.22 61.2159C3309.68 70.392 3306.7 78.2614 3302.27 84.8239C3297.86 91.3864 3292.47 96.429 3286.07 99.9517C3279.71 103.446 3272.84 105.193 3265.45 105.193C3257.75 105.193 3251.17 103.361 3245.72 99.696C3240.29 96.0028 3236.4 90.7614 3234.04 83.9716C3231.68 77.1534 3231.29 69.0284 3232.85 59.5966C3234.38 50.4205 3237.35 42.5511 3241.76 35.9886C3246.19 29.3977 3251.6 24.3409 3257.99 20.8182C3264.41 17.2955 3271.34 15.5341 3278.79 15.5341C3286.43 15.5341 3292.95 17.3807 3298.35 21.0739C3303.77 24.7386 3307.66 29.9943 3310.02 36.8409C3312.38 43.6591 3312.78 51.7841 3311.22 61.2159ZM3298.39 59.5966C3299.55 52.6364 3299.41 46.7841 3297.96 42.0398C3296.54 37.267 3294.11 33.6591 3290.68 31.2159C3287.24 28.7727 3283.09 27.5511 3278.23 27.5511C3273.06 27.5511 3268.22 28.858 3263.7 31.4716C3259.21 34.0852 3255.38 37.892 3252.2 42.892C3249.01 47.892 3246.84 54 3245.68 61.2159C3244.48 68.1761 3244.61 74.0284 3246.06 78.7727C3247.51 83.517 3249.95 87.1108 3253.39 89.554C3256.86 91.9687 3261.02 93.1761 3265.88 93.1761C3271.02 93.1761 3275.83 91.8835 3280.32 89.2983C3284.84 86.6847 3288.69 82.892 3291.87 77.9205C3295.05 72.9205 3297.22 66.8125 3298.39 59.5966ZM3320.52 104L3335 16.7273H3389.12L3387.25 28.0625H3346.3L3341.87 54.6534H3378.94L3377.06 65.946H3339.99L3333.68 104H3320.52ZM3430.34 16.7273H3445.3L3461.58 56.4006H3462.56L3491.83 16.7273H3506.79L3466.35 69.7386L3460.64 104H3447.52L3453.18 69.7386L3430.34 16.7273ZM3583.21 61.2159C3581.67 70.392 3578.69 78.2614 3574.26 84.8239C3569.86 91.3864 3564.46 96.429 3558.07 99.9517C3551.7 103.446 3544.83 105.193 3537.44 105.193C3529.74 105.193 3523.17 103.361 3517.71 99.696C3512.28 96.0028 3508.39 90.7614 3506.03 83.9716C3503.68 77.1534 3503.28 69.0284 3504.84 59.5966C3506.38 50.4205 3509.34 42.5511 3513.75 35.9886C3518.18 29.3977 3523.59 24.3409 3529.98 20.8182C3536.4 17.2955 3543.34 15.5341 3550.78 15.5341C3558.42 15.5341 3564.94 17.3807 3570.34 21.0739C3575.76 24.7386 3579.66 29.9943 3582.01 36.8409C3584.37 43.6591 3584.77 51.7841 3583.21 61.2159ZM3570.38 59.5966C3571.55 52.6364 3571.4 46.7841 3569.96 42.0398C3568.53 37.267 3566.11 33.6591 3562.67 31.2159C3559.23 28.7727 3555.08 27.5511 3550.23 27.5511C3545.05 27.5511 3540.21 28.858 3535.69 31.4716C3531.21 34.0852 3527.37 37.892 3524.19 42.892C3521.01 47.892 3518.83 54 3517.67 61.2159C3516.48 68.1761 3516.6 74.0284 3518.05 78.7727C3519.5 83.517 3521.94 87.1108 3525.38 89.554C3528.85 91.9687 3533.01 93.1761 3537.87 93.1761C3543.01 93.1761 3547.82 91.8835 3552.31 89.2983C3556.83 86.6847 3560.68 82.892 3563.86 77.9205C3567.04 72.9205 3569.22 66.8125 3570.38 59.5966ZM3663.12 16.7273H3676.33L3666.83 74.1278C3665.83 80.2358 3663.5 85.6477 3659.84 90.3636C3656.17 95.0511 3651.51 98.7443 3645.86 101.443C3640.21 104.114 3633.9 105.449 3626.94 105.449C3619.95 105.449 3614.09 104.114 3609.34 101.443C3604.6 98.7443 3601.17 95.0511 3599.07 90.3636C3597 85.6477 3596.47 80.2358 3597.49 74.1278L3607 16.7273H3620.16L3610.83 73.0625C3610.21 77.0114 3610.51 80.5199 3611.73 83.5881C3612.98 86.6562 3615.05 89.071 3617.95 90.8324C3620.88 92.5653 3624.55 93.4318 3628.99 93.4318C3633.42 93.4318 3637.38 92.5653 3640.88 90.8324C3644.4 89.071 3647.27 86.6562 3649.48 83.5881C3651.73 80.5199 3653.16 77.0114 3653.79 73.0625L3663.12 16.7273ZM3680.99 104L3695.47 16.7273H3726.58C3733.34 16.7273 3738.75 17.892 3742.82 20.2216C3746.91 22.5227 3749.72 25.733 3751.25 29.8523C3752.82 33.9432 3753.16 38.6875 3752.28 44.0852C3751.37 49.4261 3749.45 54.1136 3746.52 58.1477C3743.63 62.1818 3739.75 65.3352 3734.89 67.608C3730.06 69.8523 3724.27 70.9744 3717.5 70.9744H3693.94L3695.9 59.6392H3718.27C3722.56 59.6392 3726.14 59.0284 3729.01 57.8068C3731.88 56.5852 3734.12 54.8097 3735.74 52.4801C3737.39 50.1506 3738.47 47.3523 3738.98 44.0852C3739.52 40.7614 3739.37 37.9062 3738.51 35.5199C3737.66 33.1051 3736 31.2585 3733.53 29.9801C3731.06 28.6733 3727.66 28.0199 3723.34 28.0199H3706.81L3694.15 104H3680.99ZM3730.59 64.625L3745.63 104H3730.63L3715.97 64.625H3730.59ZM3790.44 104L3804.93 16.7273H3818.09L3805.48 92.6648H3845.03L3843.15 104H3790.44ZM3885.83 16.7273L3871.34 104H3858.17L3872.66 16.7273H3885.83ZM3890.52 104L3905 16.7273H3959.12L3957.25 28.0625H3916.3L3911.87 54.6534H3948.94L3947.06 65.946H3909.99L3903.68 104H3890.52ZM3960.83 104L3975.32 16.7273H4030.03L4028.16 28.0625H3986.61L3982.18 54.6534H4020.87L4019 65.946H3980.3L3975.87 92.6648H4017.93L4016.06 104H3960.83Z" fill="black"/>
<path d="M4.13352 104L18.6222 16.7273H31.7898L25.483 54.6534H68.9915L75.2983 16.7273H88.5085L74.0199 104H60.8097L67.1165 65.946H23.608L17.3011 104H4.13352ZM100.568 104H86.5909L132.486 16.7273H147.699L164.616 104H150.639L137.898 32.5795H137.216L100.568 104ZM108.58 69.8239H153.92L152.045 80.9034H106.705L108.58 69.8239ZM190.195 16.7273L202.766 87.8068H203.746L239.755 16.7273H253.988L208.093 104H192.88L175.962 16.7273H190.195ZM252.102 104L266.591 16.7273H321.307L319.432 28.0625H277.884L273.452 54.6534H312.145L310.27 65.946H271.577L267.145 92.6648H309.205L307.33 104H252.102ZM364.474 28.0625L366.349 16.7273H433.892L432.017 28.0625H404.787L392.173 104H379.048L391.662 28.0625H364.474ZM434.329 104L448.817 16.7273H461.985L455.678 54.6534H499.187L505.494 16.7273H518.704L504.215 104H491.005L497.312 65.946H453.803L447.496 104H434.329ZM523.391 104L537.88 16.7273H592.596L590.721 28.0625H549.173L544.741 54.6534H583.434L581.559 65.946H542.866L538.434 92.6648H580.494L578.619 104H523.391ZM635.763 28.0625L637.638 16.7273H705.181L703.306 28.0625H676.076L663.462 104H650.337L662.951 28.0625H635.763ZM733.274 16.7273L718.786 104H705.618L720.107 16.7273H733.274ZM752.45 16.7273H768.43L785.05 84.5682H786.072L825.021 16.7273H841.001L826.513 104H813.984L824.51 40.8466H823.7L787.479 103.872H777.038L761.868 40.804H761.058L750.49 104H737.962L752.45 16.7273ZM845.657 104L860.146 16.7273H914.862L912.987 28.0625H871.438L867.006 54.6534H905.7L903.825 65.946H865.131L860.7 92.6648H902.759L900.884 104H845.657Z" fill="black"/>
<path d="M2128.13 104L2142.62 16.7273H2155.79L2149.48 54.6534H2192.99L2199.3 16.7273H2212.51L2198.02 104H2184.81L2191.12 65.946H2147.61L2141.3 104H2128.13ZM2224.57 104H2210.59L2256.49 16.7273H2271.7L2288.62 104H2274.64L2261.9 32.5795H2261.22L2224.57 104ZM2232.58 69.8239H2277.92L2276.05 80.9034H2230.7L2232.58 69.8239ZM2314.2 16.7273L2326.77 87.8068H2327.75L2363.75 16.7273H2377.99L2332.09 104H2316.88L2299.96 16.7273H2314.2ZM2376.1 104L2390.59 16.7273H2445.31L2443.43 28.0625H2401.88L2397.45 54.6534H2436.14L2434.27 65.946H2395.58L2391.14 92.6648H2433.2L2431.33 104H2376.1ZM2488.47 28.0625L2490.35 16.7273H2557.89L2556.02 28.0625H2528.79L2516.17 104H2503.05L2515.66 28.0625H2488.47ZM2558.33 104L2572.82 16.7273H2585.99L2579.68 54.6534H2623.19L2629.49 16.7273H2642.7L2628.22 104H2615L2621.31 65.946H2577.8L2571.5 104H2558.33ZM2647.39 104L2661.88 16.7273H2716.6L2714.72 28.0625H2673.17L2668.74 54.6534H2707.43L2705.56 65.946H2666.87L2662.43 92.6648H2704.49L2702.62 104H2647.39ZM2759.76 28.0625L2761.64 16.7273H2829.18L2827.31 28.0625H2800.08L2787.46 104H2774.34L2786.95 28.0625H2759.76ZM2857.27 16.7273L2842.79 104H2829.62L2844.11 16.7273H2857.27ZM2876.45 16.7273H2892.43L2909.05 84.5682H2910.07L2949.02 16.7273H2965L2950.51 104H2937.98L2948.51 40.8466H2947.7L2911.48 103.872H2901.04L2885.87 40.804H2885.06L2874.49 104H2861.96L2876.45 16.7273ZM2969.66 104L2984.15 16.7273H3038.86L3036.99 28.0625H2995.44L2991.01 54.6534H3029.7L3027.82 65.946H2989.13L2984.7 92.6648H3026.76L3024.88 104H2969.66Z" fill="black"/>
<path d="M2076.07 48.4138C2108.24 55.974 2090.15 79.3247 2035.66 100.56C1981.17 121.796 1937 105.996 1937 65.2664C1937 24.5368 1955.1 1.1861 1977.41 13.1198C1999.73 25.044 2043.9 40.8535 2076.07 48.4138Z" fill="black"/>
<path d="M4200.07 48.4138C4232.24 55.974 4214.15 79.3247 4159.66 100.56C4105.17 121.796 4061 105.996 4061 65.2664C4061 24.5368 4079.1 1.1861 4101.41 13.1198C4123.73 25.044 4167.9 40.8535 4200.07 48.4138Z" fill="black"/>
</svg>
