<svg width="1254" height="211" viewBox="0 0 1254 211" fill="none" xmlns="http://www.w3.org/2000/svg">
<path d="M1253.36 74.0767H1209.81C1209.01 68.4422 1207.39 63.4375 1204.94 59.0625C1202.48 54.6212 1199.33 50.8428 1195.49 47.7273C1191.65 44.6117 1187.2 42.2254 1182.17 40.5682C1177.19 38.911 1171.79 38.0824 1165.96 38.0824C1155.42 38.0824 1146.24 40.7008 1138.42 45.9375C1130.59 51.108 1124.53 58.6648 1120.22 68.608C1115.91 78.4849 1113.76 90.483 1113.76 104.602C1113.76 119.119 1115.91 131.316 1120.22 141.193C1124.6 151.07 1130.69 158.527 1138.52 163.565C1146.34 168.603 1155.39 171.122 1165.66 171.122C1171.43 171.122 1176.76 170.36 1181.67 168.835C1186.64 167.311 1191.05 165.09 1194.89 162.173C1198.74 159.19 1201.92 155.578 1204.44 151.335C1207.02 147.093 1208.81 142.254 1209.81 136.818L1253.36 137.017C1252.23 146.364 1249.42 155.379 1244.91 164.062C1240.47 172.68 1234.47 180.402 1226.91 187.23C1219.42 193.991 1210.47 199.361 1200.06 203.338C1189.72 207.249 1178.02 209.205 1164.96 209.205C1146.8 209.205 1130.56 205.095 1116.24 196.875C1101.99 188.655 1090.72 176.757 1082.44 161.179C1074.22 145.601 1070.11 126.742 1070.11 104.602C1070.11 82.3958 1074.28 63.5038 1082.63 47.9261C1090.99 32.3485 1102.32 20.483 1116.64 12.3296C1130.96 4.10985 1147.07 0 1164.96 0C1176.76 0 1187.7 1.6572 1197.78 4.9716C1207.92 8.28599 1216.9 13.125 1224.72 19.4886C1232.54 25.786 1238.91 33.5085 1243.81 42.6562C1248.79 51.804 1251.97 62.2775 1253.36 74.0767Z" fill="black"/>
<path d="M1038.26 2.78418V206.421H995.209V2.78418H1038.26Z" fill="black"/>
<path d="M786.303 206.421V2.78418H829.357V86.8041H916.758V2.78418H959.712V206.421H916.758V122.301H829.357V206.421H786.303Z" fill="black"/>
<path d="M605.014 206.421V2.78418H685.355C700.8 2.78418 713.958 5.73399 724.83 11.6336C735.701 17.4669 743.987 25.5872 749.687 35.9944C755.454 46.3353 758.338 58.2671 758.338 71.7899C758.338 85.3126 755.421 97.2444 749.588 107.585C743.755 117.926 735.303 125.98 724.233 131.747C713.229 137.514 699.905 140.398 684.261 140.398H633.054V105.895H677.301C685.587 105.895 692.415 104.47 697.784 101.619C703.22 98.7027 707.263 94.6923 709.915 89.5882C712.633 84.4177 713.991 78.4849 713.991 71.7899C713.991 65.0285 712.633 59.1289 709.915 54.091C707.263 48.9868 703.22 45.0427 697.784 42.2586C692.348 39.4082 685.455 37.983 677.102 37.983H648.068V206.421H605.014Z" fill="black"/>
<path d="M417.933 206.421H371.797L475.902 2.78418H531.385L567.777 206.421H521.641L496.882 49.3183H495.291L417.933 206.421ZM428.473 126.378H537.45L531.683 159.986H422.706L428.473 126.378Z" fill="black"/>
<path d="M255.03 107.301C263.616 107.674 270.43 108.141 275.47 108.701C280.51 109.074 284.616 109.447 287.79 109.821C291.15 110.007 294.323 110.381 297.31 110.941C303.656 111.874 309.256 113.087 314.11 114.581C319.15 116.074 323.256 118.221 326.43 121.021C329.79 123.821 332.216 127.461 333.71 131.941C335.203 136.234 335.67 141.741 335.11 148.461L332.31 177.021C331.75 182.807 332.03 187.941 333.15 192.421C334.27 196.901 336.883 199.047 340.99 198.861C344.536 198.674 347.616 196.714 350.23 192.981C352.843 189.061 355.363 183.554 357.79 176.461L359.19 172.541H365.63L364.51 176.181C361.336 187.567 356.856 196.154 351.07 201.941C345.47 207.541 337.816 210.341 328.11 210.341C317.656 210.341 310.096 207.541 305.43 201.941C300.95 196.154 299.083 189.341 299.83 181.501L302.91 150.141C303.656 140.994 303.003 133.621 300.95 128.021C299.083 122.421 294.603 118.407 287.51 115.981C280.416 113.367 269.403 112.061 254.47 112.061L255.03 107.301ZM251.67 112.061L253.07 106.461H264.55C276.496 106.461 286.763 105.061 295.35 102.261C304.123 99.274 311.216 94.9807 316.63 89.3807C322.23 83.7807 326.336 77.2473 328.95 69.7807C331.75 62.314 333.15 54.1007 333.15 45.1407C333.15 34.5007 330.536 26.6607 325.31 21.6207C320.27 16.394 312.056 13.7807 300.67 13.7807C293.39 13.7807 288.163 15.274 284.99 18.2607C282.003 21.2473 279.296 27.1273 276.87 35.9007L239.35 176.741C237.856 182.527 237.016 187.194 236.83 190.741C236.643 194.101 237.95 196.621 240.75 198.301C243.736 199.794 248.776 200.634 255.87 200.821L254.75 206.421C250.083 206.047 244.39 205.861 237.67 205.861C231.136 205.674 224.23 205.581 216.95 205.581C209.11 205.581 201.643 205.674 194.55 205.861C187.456 205.861 181.763 206.047 177.47 206.421L178.59 200.821C184.936 200.447 189.883 199.701 193.43 198.581C196.976 197.461 199.776 195.221 201.83 191.861C203.883 188.501 205.75 183.461 207.43 176.741L244.39 37.8607C246.07 31.8873 246.816 27.2207 246.63 23.8607C246.63 20.5007 245.23 17.9807 242.43 16.3007C239.63 14.6207 234.776 13.7807 227.87 13.7807L229.27 8.18066C232.07 8.36733 235.523 8.55399 239.63 8.74066C243.736 8.74066 248.123 8.83399 252.79 9.02065C257.643 9.02065 262.123 9.02065 266.23 9.02065C273.696 9.02065 280.79 8.92732 287.51 8.74066C294.23 8.55399 300.95 8.46066 307.67 8.46066C327.83 8.46066 342.763 11.914 352.47 18.8207C362.176 25.7273 367.03 35.3407 367.03 47.6607C367.03 60.354 362.643 71.4607 353.87 80.9807C345.096 90.5007 332.87 98.0607 317.19 103.661C301.51 109.074 283.403 111.781 262.87 111.781L251.67 112.061Z" fill="black"/>
<path d="M77.84 204.741C83.6267 204.741 89.04 203.901 94.08 202.221C99.12 200.541 103.227 198.767 106.4 196.901C110.133 194.661 112.84 192.047 114.52 189.061C116.2 186.074 117.6 182.527 118.72 178.421L125.16 153.781C127.213 146.127 127.96 140.434 127.4 136.701C127.027 132.967 124.973 130.447 121.24 129.141C117.693 127.834 112 127.087 104.16 126.901L105.56 121.301C109.107 121.487 113.307 121.674 118.16 121.861C123.013 121.861 127.96 121.954 133 122.141C138.227 122.141 143.08 122.141 147.56 122.141C154.467 122.141 160.72 122.047 166.32 121.861C171.92 121.674 176.587 121.487 180.32 121.301L178.92 126.901C174.813 127.087 171.547 127.741 169.12 128.861C166.88 129.981 164.92 132.221 163.24 135.581C161.747 138.941 160.067 144.074 158.2 150.981L143.36 206.421H137.76C138.32 202.687 138.32 199.141 137.76 195.781C137.2 192.234 135.613 190.461 133 190.461C130.947 190.461 128.8 191.021 126.56 192.141C124.507 193.074 121.613 194.567 117.88 196.621C110.787 200.914 103.6 204.274 96.32 206.701C89.04 209.127 81.2 210.341 72.8 210.341C49.28 210.341 31.2667 204.741 18.76 193.541C6.25333 182.341 0 166.567 0 146.221C0 133.527 1.96 120.554 5.88 107.301C9.8 94.0474 15.4 81.2608 22.68 68.9408C30.1467 56.6207 39.0133 45.6074 49.28 35.9008C59.7333 26.1941 71.4 18.5408 84.28 12.9408C97.3467 7.15408 111.44 4.26074 126.56 4.26074C138.693 4.26074 148.027 6.03408 154.56 9.58076C161.28 13.1274 167.253 17.4208 172.48 22.4608C175.28 25.2608 177.893 25.7274 180.32 23.8608C182.747 21.9941 185.453 16.7674 188.44 8.18076H194.6C191.8 15.4608 188.907 24.3274 185.92 34.7808C182.933 45.0474 179.853 57.6474 176.68 72.5808H170.52C170.893 68.8474 171.173 65.3008 171.36 61.9408C171.733 58.3941 171.92 54.9408 171.92 51.5807C171.92 47.6608 171.64 44.0208 171.08 40.6608C170.52 37.3008 169.493 34.1274 168 31.1407C164.08 24.2341 158.293 18.9141 150.64 15.1808C143.173 11.2608 134.587 9.30075 124.88 9.30075C112.747 9.30075 101.733 12.6607 91.84 19.3808C82.1333 25.9141 73.5467 34.6874 66.08 45.7008C58.6133 56.5274 52.36 68.4741 47.32 81.5408C42.28 94.4208 38.4533 107.394 35.84 120.461C33.4133 133.341 32.2 145.007 32.2 155.461C32.2 172.261 35.9333 184.674 43.4 192.701C50.8667 200.727 62.3467 204.741 77.84 204.741Z" fill="black"/>
</svg>
