<svg width="1394" height="211" viewBox="0 0 1394 211" fill="none" xmlns="http://www.w3.org/2000/svg">
<path d="M1281.77 107.301C1290.35 107.674 1297.17 108.141 1302.21 108.701C1307.25 109.074 1311.35 109.447 1314.53 109.821C1317.89 110.007 1321.06 110.381 1324.05 110.941C1330.39 111.874 1335.99 113.087 1340.85 114.581C1345.89 116.074 1349.99 118.221 1353.17 121.021C1356.53 123.821 1358.95 127.461 1360.45 131.941C1361.94 136.234 1362.41 141.741 1361.85 148.461L1359.05 177.021C1358.49 182.807 1358.77 187.941 1359.89 192.421C1361.01 196.901 1363.62 199.047 1367.73 198.861C1371.27 198.674 1374.35 196.714 1376.97 192.981C1379.58 189.061 1382.1 183.554 1384.53 176.461L1385.93 172.541H1392.37L1391.25 176.181C1388.07 187.567 1383.59 196.154 1377.81 201.941C1372.21 207.541 1364.55 210.341 1354.85 210.341C1344.39 210.341 1336.83 207.541 1332.17 201.941C1327.69 196.154 1325.82 189.341 1326.57 181.501L1329.65 150.141C1330.39 140.994 1329.74 133.621 1327.69 128.021C1325.82 122.421 1321.34 118.407 1314.25 115.981C1307.15 113.367 1296.14 112.061 1281.21 112.061L1281.77 107.301ZM1278.41 112.061L1279.81 106.461H1291.29C1303.23 106.461 1313.5 105.061 1322.09 102.261C1330.86 99.274 1337.95 94.9807 1343.37 89.3807C1348.97 83.7807 1353.07 77.2473 1355.69 69.7807C1358.49 62.314 1359.89 54.1007 1359.89 45.1407C1359.89 34.5007 1357.27 26.6607 1352.05 21.6207C1347.01 16.394 1338.79 13.7807 1327.41 13.7807C1320.13 13.7807 1314.9 15.274 1311.73 18.2607C1308.74 21.2473 1306.03 27.1273 1303.61 35.9007L1266.09 176.741C1264.59 182.527 1263.75 187.194 1263.57 190.741C1263.38 194.101 1264.69 196.621 1267.49 198.301C1270.47 199.794 1275.51 200.634 1282.61 200.821L1281.49 206.421C1276.82 206.047 1271.13 205.861 1264.41 205.861C1257.87 205.674 1250.97 205.581 1243.69 205.581C1235.85 205.581 1228.38 205.674 1221.29 205.861C1214.19 205.861 1208.5 206.047 1204.21 206.421L1205.33 200.821C1211.67 200.447 1216.62 199.701 1220.17 198.581C1223.71 197.461 1226.51 195.221 1228.57 191.861C1230.62 188.501 1232.49 183.461 1234.17 176.741L1271.13 37.8607C1272.81 31.8873 1273.55 27.2207 1273.37 23.8607C1273.37 20.5007 1271.97 17.9807 1269.17 16.3007C1266.37 14.6207 1261.51 13.7807 1254.61 13.7807L1256.01 8.18066C1258.81 8.36733 1262.26 8.55399 1266.37 8.74066C1270.47 8.74066 1274.86 8.83399 1279.53 9.02065C1284.38 9.02065 1288.86 9.02065 1292.97 9.02065C1300.43 9.02065 1307.53 8.92732 1314.25 8.74066C1320.97 8.55399 1327.69 8.46066 1334.41 8.46066C1354.57 8.46066 1369.5 11.914 1379.21 18.8207C1388.91 25.7273 1393.77 35.3407 1393.77 47.6607C1393.77 60.354 1389.38 71.4607 1380.61 80.9807C1371.83 90.5007 1359.61 98.0607 1343.93 103.661C1328.25 109.074 1310.14 111.781 1289.61 111.781L1278.41 112.061Z" fill="black"/>
<path d="M1100.26 109.541L1101.94 103.941H1152.62L1151.22 109.541H1100.26ZM1129.1 103.941C1135.07 103.941 1140.02 102.821 1143.94 100.581C1147.86 98.154 1151.13 95.074 1153.74 91.3407C1156.54 87.6073 1158.87 83.6873 1160.74 79.5807C1162.61 75.474 1164.29 71.6473 1165.78 68.1007H1172.22C1168.86 77.994 1166.53 85.7407 1165.22 91.3407C1163.91 96.754 1162.61 101.887 1161.3 106.741C1160.37 109.914 1159.53 113.181 1158.78 116.541C1158.03 119.901 1157.1 123.821 1155.98 128.301C1155.05 132.781 1153.93 138.474 1152.62 145.381H1146.18C1146.55 141.087 1146.83 136.887 1147.02 132.781C1147.39 128.487 1147.11 124.661 1146.18 121.301C1145.25 117.754 1143.29 114.954 1140.3 112.901C1137.5 110.661 1133.11 109.541 1127.14 109.541L1129.1 103.941ZM1203.58 58.5807C1205.07 47.5673 1205.45 38.8873 1204.7 32.5407C1203.95 26.0073 1201.34 21.434 1196.86 18.8207C1192.57 16.0207 1185.66 14.6206 1176.14 14.6206H1159.62C1153.46 14.6206 1148.61 15.1807 1145.06 16.3007C1141.7 17.234 1138.99 19.3807 1136.94 22.7407C1134.89 25.914 1132.93 30.954 1131.06 37.8607L1093.82 176.741C1091.95 183.461 1091.11 188.501 1091.3 191.861C1091.67 195.221 1093.35 197.461 1096.34 198.581C1099.33 199.514 1103.99 199.981 1110.34 199.981H1127.42C1138.62 199.981 1147.67 198.394 1154.58 195.221C1161.49 192.047 1167.37 186.914 1172.22 179.821C1177.26 172.541 1182.11 162.741 1186.78 150.421H1193.22C1192.29 152.847 1191.26 155.834 1190.14 159.381C1189.02 162.927 1187.99 166.661 1187.06 170.581C1186.13 174.127 1184.91 179.261 1183.42 185.981C1181.93 192.514 1180.71 199.327 1179.78 206.421C1170.26 206.047 1159.53 205.861 1147.58 205.861C1135.63 205.674 1124.99 205.581 1115.66 205.581C1111.37 205.581 1105.86 205.581 1099.14 205.581C1092.61 205.581 1085.42 205.674 1077.58 205.861C1069.74 205.861 1061.81 205.954 1053.78 206.141C1045.94 206.141 1038.47 206.234 1031.38 206.421L1032.78 200.821C1039.13 200.447 1044.07 199.701 1047.62 198.581C1051.17 197.461 1053.87 195.221 1055.74 191.861C1057.79 188.501 1059.75 183.461 1061.62 176.741L1098.86 37.8607C1100.73 30.954 1101.47 25.914 1101.1 22.7407C1100.91 19.3807 1099.33 17.1407 1096.34 16.0207C1093.54 14.714 1088.97 13.9673 1082.62 13.7807L1084.02 8.18066C1091.11 8.36733 1098.58 8.55399 1106.42 8.74066C1114.45 8.74066 1122.38 8.83399 1130.22 9.02065C1138.06 9.02065 1145.25 9.02065 1151.78 9.02065C1158.5 9.02065 1164.01 9.02065 1168.3 9.02065C1176.7 9.02065 1186.03 9.02065 1196.3 9.02065C1206.75 8.83399 1216.18 8.55399 1224.58 8.18066C1222.15 14.714 1220.01 20.9673 1218.14 26.9407C1216.27 32.7273 1214.87 37.4873 1213.94 41.2207C1213.01 44.5807 1212.17 47.8473 1211.42 51.0207C1210.86 54.0073 1210.39 56.5273 1210.02 58.5807H1203.58Z" fill="black"/>
<path d="M927.995 109.541L929.675 103.941H980.355L978.955 109.541H927.995ZM956.835 103.941C962.809 103.941 967.755 102.821 971.675 100.581C975.595 98.154 978.862 95.074 981.475 91.3407C984.275 87.6073 986.609 83.6873 988.475 79.5807C990.342 75.474 992.022 71.6473 993.515 68.1007H999.955C996.595 77.994 994.262 85.7407 992.955 91.3407C991.649 96.754 990.342 101.887 989.035 106.741C988.102 109.914 987.262 113.181 986.515 116.541C985.769 119.901 984.835 123.821 983.715 128.301C982.782 132.781 981.662 138.474 980.355 145.381H973.915C974.289 141.087 974.569 136.887 974.755 132.781C975.129 128.487 974.849 124.661 973.915 121.301C972.982 117.754 971.022 114.954 968.035 112.901C965.235 110.661 960.849 109.541 954.875 109.541L956.835 103.941ZM1031.32 58.5807C1032.81 47.5673 1033.18 38.8873 1032.44 32.5407C1031.69 26.0073 1029.08 21.434 1024.6 18.8207C1020.3 16.0207 1013.4 14.6206 1003.88 14.6206H987.355C981.195 14.6206 976.342 15.1807 972.795 16.3007C969.435 17.234 966.729 19.3807 964.675 22.7407C962.622 25.914 960.662 30.954 958.795 37.8607L921.555 176.741C919.689 183.461 918.849 188.501 919.035 191.861C919.409 195.221 921.089 197.461 924.075 198.581C927.062 199.514 931.729 199.981 938.075 199.981H955.155C966.355 199.981 975.409 198.394 982.315 195.221C989.222 192.047 995.102 186.914 999.955 179.821C1005 172.541 1009.85 162.741 1014.52 150.421H1020.96C1020.02 152.847 1019 155.834 1017.88 159.381C1016.76 162.927 1015.73 166.661 1014.8 170.581C1013.86 174.127 1012.65 179.261 1011.16 185.981C1009.66 192.514 1008.45 199.327 1007.52 206.421C997.995 206.047 987.262 205.861 975.315 205.861C963.369 205.674 952.729 205.581 943.395 205.581C939.102 205.581 933.595 205.581 926.875 205.581C920.342 205.581 913.155 205.674 905.315 205.861C897.475 205.861 889.542 205.954 881.515 206.141C873.675 206.141 866.209 206.234 859.115 206.421L860.515 200.821C866.862 200.447 871.809 199.701 875.355 198.581C878.902 197.461 881.609 195.221 883.475 191.861C885.529 188.501 887.489 183.461 889.355 176.741L926.595 37.8607C928.462 30.954 929.209 25.914 928.835 22.7407C928.649 19.3807 927.062 17.1407 924.075 16.0207C921.275 14.714 916.702 13.9673 910.355 13.7807L911.755 8.18066C918.849 8.36733 926.315 8.55399 934.155 8.74066C942.182 8.74066 950.115 8.83399 957.955 9.02065C965.795 9.02065 972.982 9.02065 979.515 9.02065C986.235 9.02065 991.742 9.02065 996.035 9.02065C1004.44 9.02065 1013.77 9.02065 1024.04 9.02065C1034.49 8.83399 1043.92 8.55399 1052.32 8.18066C1049.89 14.714 1047.74 20.9673 1045.88 26.9407C1044.01 32.7273 1042.61 37.4873 1041.68 41.2207C1040.74 44.5807 1039.9 47.8473 1039.16 51.0207C1038.6 54.0073 1038.13 56.5273 1037.76 58.5807H1031.32Z" fill="black"/>
<path d="M851.881 2.78418V206.421H814.694L726.1 78.2529H724.609V206.421H681.555V2.78418H719.339L807.237 130.852H809.026V2.78418H851.881Z" fill="black"/>
<path d="M646.132 2.78418V206.421H603.078V2.78418H646.132Z" fill="black"/>
<path d="M525.099 68.608C523.707 63.7689 521.752 59.4934 519.233 55.7812C516.714 52.0028 513.631 48.821 509.986 46.2358C506.406 43.5843 502.296 41.5625 497.656 40.1705C493.082 38.7784 488.011 38.0824 482.443 38.0824C472.036 38.0824 462.888 40.6676 455 45.8381C447.178 51.0085 441.079 58.5322 436.704 68.4091C432.329 78.2197 430.142 90.2178 430.142 104.403C430.142 118.589 432.296 130.653 436.605 140.597C440.914 150.54 447.012 158.13 454.9 163.366C462.789 168.537 472.102 171.122 482.841 171.122C492.585 171.122 500.904 169.399 507.798 165.952C514.758 162.438 520.061 157.5 523.707 151.136C527.419 144.773 529.275 137.249 529.275 128.565L538.025 129.858H485.525V97.4432H570.738V123.097C570.738 140.994 566.96 156.373 559.403 169.233C551.846 182.027 541.439 191.903 528.182 198.864C514.924 205.758 499.744 209.205 482.642 209.205C463.551 209.205 446.78 204.995 432.329 196.577C417.879 188.092 406.61 176.061 398.522 160.483C390.502 144.839 386.491 126.278 386.491 104.801C386.491 88.2955 388.878 73.5796 393.65 60.6534C398.489 47.661 405.251 36.6572 413.934 27.6421C422.618 18.6269 432.727 11.7661 444.261 7.05966C455.795 2.35322 468.29 0 481.747 0C493.281 0 504.02 1.69034 513.963 5.07103C523.906 8.38542 532.722 13.0919 540.412 19.1903C548.167 25.2888 554.498 32.5473 559.403 40.9659C564.308 49.3182 567.457 58.5322 568.849 68.608H525.099Z" fill="black"/>
<path d="M375.579 2.78418L341.772 206.421H304.585L237.468 78.2529H235.877L214.499 206.421H171.445L205.252 2.78418H243.036L309.854 130.852H311.545L332.724 2.78418H375.579Z" fill="black"/>
<path d="M0 206.421L33.8068 2.78418H171.023L165.057 38.2813H70.8949L62.9403 86.8041H150.043L144.077 122.301H56.9744L49.0199 170.923H143.58L137.614 206.421H0Z" fill="black"/>
</svg>
