<svg width="656" height="243" viewBox="0 0 656 243" fill="none" xmlns="http://www.w3.org/2000/svg">
<path d="M206.219 107L220.708 19.7273H251.816C258.577 19.7273 263.975 20.9631 268.009 23.4347C272.072 25.9062 274.856 29.2727 276.362 33.5341C277.896 37.7955 278.222 42.6108 277.342 47.9801C276.433 53.3494 274.501 58.179 271.546 62.4688C268.62 66.7301 264.714 70.1108 259.827 72.6108C254.941 75.0824 249.131 76.3182 242.398 76.3182H220.964L222.796 65.1534H242.995C247.285 65.1534 250.893 64.4148 253.819 62.9375C256.773 61.4318 259.089 59.3864 260.765 56.8011C262.441 54.1875 263.535 51.2472 264.046 47.9801C264.586 44.6562 264.444 41.7301 263.62 39.2017C262.796 36.6449 261.163 34.642 258.719 33.1932C256.305 31.7443 252.924 31.0199 248.577 31.0199H232.043L219.387 107H206.219ZM282.743 107L297.232 19.7273H310.399L297.786 95.6648H337.331L335.456 107H282.743ZM350.477 107L364.966 19.7273H419.682L417.807 31.0625H376.259L371.827 57.6534H410.52L408.645 68.946H369.952L365.52 95.6648H407.58L405.705 107H350.477ZM430.154 107H416.177L462.072 19.7273H477.285L494.202 107H480.225L467.484 35.5795H466.802L430.154 107ZM438.165 72.8239H483.506L481.631 83.9034H436.29L438.165 72.8239ZM564.27 43.1648C564.298 38.875 562.906 35.5937 560.094 33.321C557.31 31.0483 553.418 29.9119 548.418 29.9119C544.838 29.9119 541.642 30.4801 538.83 31.6165C536.045 32.7244 533.773 34.2585 532.011 36.2188C530.278 38.1506 529.213 40.3523 528.815 42.8239C528.446 44.8977 528.631 46.6875 529.369 48.1932C530.136 49.6989 531.23 50.9631 532.651 51.9858C534.099 52.9801 535.69 53.8182 537.423 54.5C539.156 55.1534 540.832 55.6932 542.452 56.1193L550.634 58.3352C553.276 59.017 555.96 59.9403 558.688 61.1051C561.415 62.2699 563.872 63.804 566.06 65.7074C568.247 67.6108 569.881 69.9688 570.96 72.7812C572.04 75.5938 572.253 78.9602 571.599 82.8807C570.747 87.8239 568.744 92.2131 565.591 96.0483C562.438 99.8835 558.276 102.909 553.105 105.125C547.935 107.341 541.94 108.449 535.122 108.449C528.588 108.449 523.091 107.412 518.631 105.338C514.199 103.264 510.946 100.324 508.872 96.517C506.798 92.6818 506.06 88.1364 506.656 82.8807H519.909C519.597 86.0341 520.165 88.6619 521.614 90.7642C523.091 92.8381 525.165 94.3864 527.835 95.4091C530.506 96.4034 533.531 96.9006 536.912 96.9006C540.662 96.9006 544.085 96.3182 547.182 95.1534C550.278 93.9602 552.835 92.3125 554.852 90.2102C556.869 88.0795 558.105 85.5937 558.56 82.7528C559.014 80.1676 558.645 78.0511 557.452 76.4034C556.287 74.7557 554.526 73.392 552.168 72.3125C549.838 71.233 547.182 70.2812 544.199 69.4574L534.355 66.6449C527.679 64.7415 522.622 61.9432 519.185 58.25C515.747 54.5568 514.511 49.6705 515.477 43.5909C516.33 38.5625 518.432 34.1733 521.784 30.4233C525.136 26.6733 529.312 23.7614 534.312 21.6875C539.312 19.5852 544.739 18.5341 550.591 18.5341C556.5 18.5341 561.528 19.5852 565.676 21.6875C569.824 23.7898 572.892 26.6875 574.881 30.3807C576.869 34.0739 577.565 38.3352 576.969 43.1648H564.27ZM583.329 107L597.817 19.7273H652.533L650.658 31.0625H609.11L604.678 57.6534H643.371L641.496 68.946H602.803L598.371 95.6648H640.431L638.556 107H583.329ZM153.496 168.108H140.456C140.399 165.267 139.874 162.767 138.879 160.608C137.885 158.42 136.521 156.588 134.788 155.111C133.084 153.605 131.081 152.469 128.78 151.702C126.479 150.935 123.993 150.551 121.322 150.551C116.18 150.551 111.351 151.858 106.834 154.472C102.317 157.085 98.4673 160.892 95.2855 165.892C92.1037 170.892 89.9162 176.986 88.723 184.173C87.5582 191.162 87.7003 197.028 89.1491 201.773C90.598 206.517 93.0412 210.111 96.4787 212.554C99.9446 214.969 104.107 216.176 108.964 216.176C111.805 216.176 114.575 215.807 117.274 215.068C120.001 214.301 122.53 213.179 124.859 211.702C127.189 210.224 129.249 208.42 131.038 206.29C132.857 204.131 134.277 201.659 135.3 198.875H148.51C147.089 203.193 145.087 207.142 142.501 210.722C139.916 214.301 136.862 217.398 133.339 220.011C129.817 222.625 125.953 224.642 121.749 226.062C117.544 227.483 113.098 228.193 108.411 228.193C100.712 228.193 94.1491 226.361 88.723 222.696C83.3253 219.003 79.4474 213.747 77.0895 206.929C74.7599 200.111 74.3622 191.986 75.8963 182.554C77.4588 173.378 80.4418 165.509 84.8452 158.946C89.277 152.355 94.6747 147.312 101.038 143.818C107.43 140.295 114.334 138.534 121.749 138.534C126.436 138.534 130.726 139.202 134.618 140.537C138.51 141.844 141.862 143.776 144.675 146.332C147.516 148.861 149.703 151.957 151.237 155.622C152.771 159.259 153.524 163.42 153.496 168.108ZM242.505 184.216C240.971 193.392 237.988 201.261 233.556 207.824C229.153 214.386 223.755 219.429 217.363 222.952C210.999 226.446 204.124 228.193 196.738 228.193C189.039 228.193 182.462 226.361 177.008 222.696C171.582 219.003 167.69 213.761 165.332 206.972C162.974 200.153 162.576 192.028 164.138 182.597C165.673 173.42 168.641 165.551 173.045 158.989C177.477 152.398 182.888 147.341 189.281 143.818C195.701 140.295 202.633 138.534 210.076 138.534C217.718 138.534 224.238 140.381 229.636 144.074C235.062 147.739 238.954 152.994 241.312 159.841C243.67 166.659 244.067 174.784 242.505 184.216ZM229.678 182.597C230.843 175.636 230.701 169.784 229.252 165.04C227.832 160.267 225.403 156.659 221.965 154.216C218.528 151.773 214.38 150.551 209.522 150.551C204.352 150.551 199.508 151.858 194.991 154.472C190.502 157.085 186.667 160.892 183.485 165.892C180.303 170.892 178.13 177 176.965 184.216C175.772 191.176 175.9 197.028 177.349 201.773C178.798 206.517 181.241 210.111 184.678 212.554C188.144 214.969 192.306 216.176 197.164 216.176C202.306 216.176 207.121 214.884 211.61 212.298C216.127 209.685 219.977 205.892 223.158 200.92C226.34 195.92 228.513 189.812 229.678 182.597ZM336.734 139.727L322.246 227H310.143L276.436 162.994H275.669L264.973 227H251.805L266.294 139.727H278.482L312.232 203.818H313.041L323.695 139.727H336.734ZM349.763 151.062L351.638 139.727H419.181L417.306 151.062H390.076L377.462 227H364.337L376.951 151.062H349.763ZM416.678 227H402.7L448.595 139.727H463.808L480.726 227H466.749L454.007 155.58H453.325L416.678 227ZM424.689 192.824H470.03L468.155 203.903H422.814L424.689 192.824ZM571.386 168.108H558.347C558.29 165.267 557.764 162.767 556.77 160.608C555.776 158.42 554.412 156.588 552.679 155.111C550.974 153.605 548.972 152.469 546.67 151.702C544.369 150.935 541.884 150.551 539.213 150.551C534.071 150.551 529.241 151.858 524.724 154.472C520.207 157.085 516.358 160.892 513.176 165.892C509.994 170.892 507.807 176.986 506.614 184.173C505.449 191.162 505.591 197.028 507.04 201.773C508.489 206.517 510.932 210.111 514.369 212.554C517.835 214.969 521.997 216.176 526.855 216.176C529.696 216.176 532.466 215.807 535.165 215.068C537.892 214.301 540.42 213.179 542.75 211.702C545.08 210.224 547.139 208.42 548.929 206.29C550.747 204.131 552.168 201.659 553.19 198.875H566.401C564.98 203.193 562.977 207.142 560.392 210.722C557.807 214.301 554.753 217.398 551.23 220.011C547.707 222.625 543.844 224.642 539.639 226.062C535.435 227.483 530.989 228.193 526.301 228.193C518.602 228.193 512.04 226.361 506.614 222.696C501.216 219.003 497.338 213.747 494.98 206.929C492.651 200.111 492.253 191.986 493.787 182.554C495.349 173.378 498.332 165.509 502.736 158.946C507.168 152.355 512.565 147.312 518.929 143.818C525.321 140.295 532.224 138.534 539.639 138.534C544.327 138.534 548.616 139.202 552.509 140.537C556.401 141.844 559.753 143.776 562.565 146.332C565.406 148.861 567.594 151.957 569.128 155.622C570.662 159.259 571.415 163.42 571.386 168.108ZM585.779 151.062L587.654 139.727H655.197L653.322 151.062H626.092L613.478 227H600.353L612.967 151.062H585.779Z" fill="black"/>
<path d="M164.5 19V107H26.5" stroke="black" stroke-width="10"/>
<path d="M164 106.5L3 4.5" stroke="black" stroke-width="10"/>
</svg>
